<svg id="Layer_1" data-name="Layer 1" xmlns="http://www.w3.org/2000/svg" viewBox="0 0 329.62 353"><defs><style>.cls-1{fill:#070707;}.cls-2{fill:#b6bac7;}.cls-3{fill:#c7ccd5;}.cls-4{fill:#c7cbd3;}.cls-5{fill:#4b5260;}.cls-6{fill:#4a515e;}.cls-7{fill:#8991a4;}.cls-8{fill:#8a91a3;}.cls-9{fill:#4c5361;}.cls-10{fill:#8a92a4;}.cls-11{fill:#4b5361;}.cls-12{fill:#caccd2;}.cls-13{fill:#c2c6d0;}.cls-14{fill:#9197a9;}.cls-15{fill:#8f95a5;}.cls-16{fill:#c7cad2;}.cls-17{fill:#c6cad1;}.cls-18{fill:#c8cbd3;}.cls-19{fill:#b7bcc8;}.cls-20{fill:#b2b7c4;}.cls-21{fill:#b4b9c6;}.cls-22{fill:#c5cad2;}.cls-23{fill:#c5cad3;}.cls-24{fill:#b6bac6;}.cls-25{fill:#c6cad2;}.cls-26{fill:#4f5664;}.cls-27{fill:#8a93a6;}.cls-28{fill:#8b93a6;}.cls-29{fill:#090909;}.cls-30{fill:#080808;}.cls-31{fill:#0a0a0a;}.cls-32{fill:#9298a8;}.cls-33{fill:#9098ab;}.cls-34{fill:#0d0d0d;}.cls-35{fill:#0c0c0c;}.cls-36{fill:#0b0b0c;}.cls-37{fill:#474c59;}.cls-38{fill:#464953;}.cls-39{fill:#75798e;}.cls-40{fill:#7b7f92;}.cls-41{fill:#434753;}.cls-42{fill:#7b7f91;}.cls-43{fill:#7d8295;}.cls-44{fill:#424755;}.cls-45{fill:#0e0e0e;}.cls-46{fill:#818794;}.cls-47{fill:#7f8298;}.cls-48{fill:#76788b;}.cls-49{fill:#84889a;}</style></defs><path class="cls-1" d="M9.24,281.43C.57,279,.78,272.39.8,265.1Q1,173.66.64,82.23c0-4,1.19-5.69,4.78-7.33q77.44-35.3,154.69-71A9.66,9.66,0,0,1,169,3.68c53,23.23,105.37,48,158.11,71.93,2.28,1,3.2,2.2,3.19,4.8q-.21,96.69-.14,193.37c0,6-2.77,5.13-7.79,7.49-7.63,4.23-128.19,62.29-151.55,73.19-4,1.89-7.43,1.5-11.34-.35q-66.49-31.55-133-63c-4.21-2-8.53-3.74-12.66-5.91C12,284.25,10.16,283.38,9.24,281.43Z" transform="translate(-0.64 -2.71)"/><path class="cls-2" d="M273,166.67l39.26-18c1.51-.69,3-1.36,4.56-2,5.11-2.23,5.1-2.23,5.1,3.17q0,15.75,0,31.48c0,8.83-.06,17.66.18,26.48.09,3.16-1,4.65-3.87,5.93C305,219.53,292,225.79,278.68,231.56c-4,1.75-5.67,3.79-5.56,8.45.41,17,.15,34,.37,51,.05,3.31-.91,5.06-4,6.46q-23.16,10.6-46.11,21.68c-3.85,1.87-4,.28-4-2.85.08-16,0-32,0-48V262l-49.09,23c-1.56-1.35-1-2.77-1-4,0-19.66.14-39.31,0-59,0-4,1.07-6.23,4.9-7.94C188.1,208,201.71,201.3,215.5,195c3-1.36,4.08-3,4-6.33-.21-17-.12-34-.09-51,0-1.87-.71-4,1.79-5.17,17.11-8,34.19-16.15,51.79-24.48Z" transform="translate(-0.64 -2.71)"/><path class="cls-3" d="M161.24,285.11,112.1,262.22c-1.11,1.54-.7,3-.7,4.44-.05,16.49-.17,33,0,49.46,0,4.37-1,4.61-4.67,2.8-14.63-7.23-29.32-14.34-44.15-21.13-3.83-1.76-5-4-4.9-8,.21-16.48,0-33,.21-49.45.06-4.24-1.1-6.49-5.13-8.27-13.24-5.83-26.25-12.21-39.43-18.2-3.07-1.39-4.5-3-4.45-6.65.25-19.31.24-38.63.11-57.95,0-3.84.83-4.61,4.38-2.92,13.06,6.21,26.22,12.24,39.34,18.32,1.47.68,3,1.24,5.24,2.17,0-5.19,0-9.8,0-14.41,0-13.32,0-26.65-.1-40,0-3.46.7-3.93,3.86-2.42q22.95,11,46.1,21.49c2.94,1.33,3.63,3.14,3.61,6.14-.11,17,.08,34-.09,51,0,3.33.94,5.06,4,6.43,14.25,6.44,28.39,13.13,42.61,19.65,2.33,1.06,3.62,2.23,3.61,5.13-.07,21,.07,42,.12,62.95A15.66,15.66,0,0,1,161.24,285.11Z" transform="translate(-0.64 -2.71)"/><path class="cls-4" d="M265.65,56.24,216.59,78.08l50.54,23.64c-3,2.59-6.25,3.84-9.37,5.3-12.51,5.83-25.1,11.46-37.57,17.36a8.58,8.58,0,0,1-8-.11c-14-6.49-28.15-12.75-42.14-19.32-3.14-1.48-5.7-1.66-8.87-.15-14,6.64-28.05,13-42,19.59a8.41,8.41,0,0,1-7.93,0c-14.1-6.71-28.32-13.17-42.47-19.76-1.61-.75-3.46-1.18-4.75-3.22l50.62-23.34L65.91,56.14c12.31-5.88,24.19-10.67,35.15-17,11.32-6.58,21.38-6.85,32.76-.13,9,5.3,19.06,8.66,28.58,13a7,7,0,0,0,6.56-.09c13.09-6.18,26.27-12.15,39.36-18.33a8.41,8.41,0,0,1,8-.15c14.16,6.63,28.43,13,42.66,19.51C260.87,53.8,262.75,54.8,265.65,56.24Z" transform="translate(-0.64 -2.71)"/><path class="cls-5" d="M211.28,144.19c.12,13.77.21,27.53.37,41.3,0,2-1.05,2.92-2.69,3.68q-16.9,7.91-33.77,15.89c-1.71-1.72-1.59-3.95-1.6-6.1-.06-10.81.08-21.63-.07-32.44-.07-5.18,2.1-8.56,6.74-10.54,8.41-3.62,16.42-8.09,24.91-11.52C207.16,143.65,209.17,142.6,211.28,144.19Z" transform="translate(-0.64 -2.71)"/><path class="cls-6" d="M209.35,275.27c3.73-2.6,3,.78,3,2.41-.07,10.49-.28,21-.46,31.47a11.11,11.11,0,0,0-.15,2.49c2.07,10.07-2.47,15.37-11.83,18.65-8.43,3-16,8-24.58,10.94-1.91-1.62-1.66-3.89-1.68-6-.08-10.31.07-20.62-.07-30.93-.07-5.2,2.22-8.18,6.91-10.29,8.34-3.73,16.69-7.47,24.84-11.63C208.36,280.81,210,278.76,209.35,275.27Z" transform="translate(-0.64 -2.71)"/><path class="cls-7" d="M155.34,204.46c-11.27-5.2-22.53-10.42-33.83-15.57a3.26,3.26,0,0,1-2.21-3.4q.14-20.62.18-41.25c2.3-1.72,4.48-.56,6.56.44,8.4,4,16.63,8.44,25.24,12,3.07,1.28,4.5,3.53,4.93,6.86,1.54,11.95.93,23.94.94,35.92C157.15,201.32,157,203.21,155.34,204.46Z" transform="translate(-0.64 -2.71)"/><path class="cls-8" d="M156.32,341.49c-11.57-5.38-23.12-10.8-34.72-16.1-2.06-.93-2.45-2.34-2.43-4.33.14-13.27.22-26.54.31-39.81,1.7-.82,3.26-.13,4.78.52,9.32,4,18.43,8.43,27.59,12.78a8.59,8.59,0,0,1,5.3,8.28c.13,12,0,23.93.09,35.9A3.7,3.7,0,0,1,156.32,341.49Z" transform="translate(-0.64 -2.71)"/><path class="cls-9" d="M321.31,221.32c2.28.57,1.06,2.43,1.06,3.54,0,14.09-.19,28.17-.1,42.26,0,3.46-1.12,5.47-4.25,6.95-10.16,4.82-20,10.35-30.56,14.34-2-1.5-1.89-3.78-1.91-5.9-.09-11.13,0-22.27-.06-33.4,0-5,2-8.16,6.66-9.91,5.91-2.22,11.57-5,17.37-7.54C314.59,229.48,319.46,227.14,321.31,221.32Z" transform="translate(-0.64 -2.71)"/><path class="cls-7" d="M44.45,289.34C33.72,284.09,23,278.77,12.24,273.67c-2.68-1.27-3.49-2.94-3.44-5.8.21-13.13.21-26.25.29-39.37,1.59-1.73,3.41-1,5-.26,8.81,3.86,17.71,7.5,26.23,12,3.06,1.62,4.79,4,4.84,7.49.21,12.93,0,25.87.11,38.8A4.31,4.31,0,0,1,44.45,289.34Z" transform="translate(-0.64 -2.71)"/><path class="cls-10" d="M43.51,151.24c-10.83-5-21.64-10-32.5-14.83-1.9-.86-2.18-2.16-2.18-3.95,0-14.42-.08-28.84-.07-43.26,0-1.11-.74-3.38,2-2.09.28,4.08,3,6,6.38,7.5q11.21,5,22.5,9.64c3.88,1.62,5.62,4.35,5.62,8.5,0,11,0,22,0,33C45.2,147.69,45.29,149.78,43.51,151.24Z" transform="translate(-0.64 -2.71)"/><path class="cls-11" d="M322.17,88.25q0,22.43,0,44.86a3.3,3.3,0,0,1-2.26,3.41c-10.95,4.81-21.86,9.7-32.78,14.57-1.73-1.71-1.6-3.94-1.62-6.09-.06-10.15.08-20.3-.06-30.45-.07-4.93,1.76-8.16,6.41-10.1,5.06-2.12,10-4.46,15.05-6.68C312.49,95.32,318.23,93.24,322.17,88.25Z" transform="translate(-0.64 -2.71)"/><path class="cls-12" d="M207.13,130.68,167.75,148.4a3.93,3.93,0,0,1-3.31.34c-13.39-5.23-26.23-11.63-40.41-18.18,10.55-4.88,20.37-8.59,29.32-13.79,8.58-5,16-4.71,24.43,0C186.85,121.83,196.56,125.74,207.13,130.68Z" transform="translate(-0.64 -2.71)"/><path class="cls-13" d="M203.59,27.5,167.2,44a3.94,3.94,0,0,1-3.37,0L127.17,27.76c7.24-3.37,13.81-5.53,19.38-9.21,12.17-8,23.71-8.71,36.2-.6C188.75,21.85,195.87,24,203.59,27.5Z" transform="translate(-0.64 -2.71)"/><path class="cls-14" d="M17.41,78.3c10.65-4,20.33-10.14,31.1-13.85,11.19,1.65,21,7,31,11.83,2.91,1.4,2.82,3.59-.14,5.07Q67.76,87.13,55.83,92.16a11.36,11.36,0,0,1-8.31,0c-9.87-3.46-19.21-8.2-28.77-12.42A2.94,2.94,0,0,1,17.41,78.3Z" transform="translate(-0.64 -2.71)"/><path class="cls-15" d="M281.31,64.37l31.32,13.76a2.57,2.57,0,0,1-1.26,1.48c-9.14,4.3-17.82,9.59-27.48,12.79a12,12,0,0,1-9.61-.41c-7.15-3.5-14.31-7-21.66-10.06-1.48-.62-3.39-1.26-3.26-3.27.11-1.66,1.77-2.32,3.14-2.86a214.07,214.07,0,0,0,22.05-10.38C276.75,64.24,279,64.52,281.31,64.37Z" transform="translate(-0.64 -2.71)"/><path class="cls-16" d="M17.41,78.3c6.67,1.08,12.22,5,18.42,7.26,3.26,1.19,6.4,2.72,9.56,4.18a14.19,14.19,0,0,0,13.3-.41c7.17-3.7,14.6-6.87,22.54-10.54a250.73,250.73,0,0,0-27.9-12c-1.68-.64-3.62-.77-4.82-2.37,4.13-3.23,8.21-3.9,13.28-1.45,10.72,5.18,21.72,9.76,33.82,15.13-6.72,3.09-12.24,5.62-17.75,8.18C70.92,89.53,64,92.81,57,96c-1.61.74-3.24,2-5.18,1.18-12.54-5.6-25-11.24-37.66-16.91A3.87,3.87,0,0,1,17.41,78.3Z" transform="translate(-0.64 -2.71)"/><path class="cls-17" d="M281.31,64.37c-10.56,4.24-20.2,10.49-32,14.11l28.49,13.38c1.58.74,2.92-.25,4.31-.63,8.4-2.31,15.79-6.88,23.57-10.57,2.23-1.06,4.36-2.43,6.94-2.53l5.08,1.94-38.54,17a3.74,3.74,0,0,1-3.31-.33q-19.67-9.06-39.36-18c.06-.32,0-.83.2-.9,11.83-5.26,23.72-10.4,35.51-15.75C276.08,60.29,278.4,63.12,281.31,64.37Z" transform="translate(-0.64 -2.71)"/><path class="cls-18" d="M155.34,204.46c-.18-13.58.47-27.18-.77-40.76-.24-2.67-.93-4-3.44-5.18-9.07-4.08-18-8.47-27-12.76-1.5-.71-3-1.55-4.68-1.52a18.06,18.06,0,0,1,.07-7c5.83,2.63,11.49,5.18,17.16,7.72,6.81,3.05,13.56,6.22,20.46,9.06,3,1.23,4.36,2.7,4.32,6.17-.2,15.56-.09,31.12-.09,47A14.9,14.9,0,0,1,155.34,204.46Z" transform="translate(-0.64 -2.71)"/><path class="cls-19" d="M211.28,144.19c-11.82,4-22.67,10.15-33.93,15.4-2.41,1.12-2,3.14-2.06,5.09q-.07,20.19-.1,40.38c-.73.41-1.47.78-2.17,1.22-2.47,1.55-3.67,1.51-3.64-2,.12-14.93,0-29.87,0-44.8,0-1.86,0-3.49,2.16-4.48,13.11-5.89,26.17-11.91,39.41-18A13.55,13.55,0,0,1,211.28,144.19Z" transform="translate(-0.64 -2.71)"/><path class="cls-20" d="M209.35,275.27c3.28,2.46,3,5.66-.89,7.5-9.73,4.65-19.47,9.31-29.33,13.7-2.82,1.26-4,2.74-4,5.9.19,12.95.12,25.91.15,38.86-1,.61-1.95,1.24-2.95,1.83-2,1.2-2.91.79-2.91-1.74q.07-22.4-.06-44.78c0-2.32,1.3-3.05,3.07-3.87C184.79,286.92,197.06,281.08,209.35,275.27Z" transform="translate(-0.64 -2.71)"/><path class="cls-21" d="M321.31,221.32c1.13,4.74-.32,7.5-5.25,9.34-8.53,3.2-16.69,7.39-25.11,10.89-2.75,1.13-3.72,2.57-3.68,5.52.19,13.78.15,27.56.2,41.34l-3,1.78c-2,1.23-3,.84-3-1.7q0-23.42-.1-46.84c0-1.45.3-2.56,1.78-3.2C296,232.93,308.27,226.26,321.31,221.32Z" transform="translate(-0.64 -2.71)"/><path class="cls-22" d="M156.32,341.49c-1-2-1-4.16-1-6.33,0-10.62-.15-21.25.07-31.86.08-3.65-1-5.75-4.42-7.28-10.58-4.76-21-9.83-31.52-14.77v-6.91C133,280.75,146,287,159.06,293.09a3.67,3.67,0,0,1,2.35,3.87q0,23.16,0,46.42C159.32,343.49,157.85,342.4,156.32,341.49Z" transform="translate(-0.64 -2.71)"/><path class="cls-23" d="M44.45,289.34c-1.19-2-1-4.13-1-6.29q0-17.67,0-35.34c0-1.76.48-3.71-1.69-4.78-10.68-5.27-21.33-10.61-32.65-14.43-1-.93-.62-2.17-.62-3.28,0-3.51,1-4.53,4.66-2.69C24,227.92,35,233,46.06,237.94c2.67,1.21,3.61,2.7,3.58,5.6-.14,14.29-.07,28.58-.07,42.87C49.56,292.09,49.55,292.09,44.45,289.34Z" transform="translate(-0.64 -2.71)"/><path class="cls-24" d="M322.17,88.25c0,4.29-2.49,6.08-6.27,7.58-8.46,3.36-16.63,7.44-25,10.94-2.76,1.15-3.63,2.65-3.61,5.55.1,12.92,0,25.85-.09,38.77-.9.43-1.84.8-2.69,1.3-2.42,1.43-3.08.59-3.08-2q0-21.42-.18-42.83a4,4,0,0,1,2.55-4.23c11.41-5.37,22.8-10.75,34.5-15.43C319.61,87.37,321,86.48,322.17,88.25Z" transform="translate(-0.64 -2.71)"/><path class="cls-25" d="M43.51,151.24c0-13-.14-26,0-39,0-3.28-.83-5-4.12-6.24C30.58,102.6,22,98.55,13.28,94.83c-3.89-1.66-5-4.06-2.53-7.72,11.84,5.23,23.65,10.52,35.54,15.63,2.53,1.08,3.37,2.54,3.35,5.26-.13,13.29,0,26.59-.09,39.89,0,1.87,1.08,4.54-.77,5.46C47.15,154.15,45.12,152.42,43.51,151.24Z" transform="translate(-0.64 -2.71)"/><path class="cls-26" d="M226.26,280.54c0-8.33-.12-16.66.05-25,.07-3.33-.54-4.11-3.82-2.52-14.24,6.89-28.62,13.46-42.84,20.39-3.22,1.57-4.19,1.54-4.15-2.38q.24-23,0-46c0-3.14,1.12-4.73,4-6,14.26-6.45,28.38-13.21,42.64-19.63,3-1.35,4.21-2.89,4.17-6.3-.19-17,0-34-.17-51,0-3.49,1-5.38,4.23-6.83q15.72-7,31.18-14.62c3.84-1.89,5.11-1.51,5,3.1-.2,16,0,32-.15,48-.05,4.3.84,5.26,5,3.27,13.05-6.27,26.28-12.15,39.37-18.34,3.63-1.72,4.8-1.29,4.73,3-.24,14.48-.24,29-.1,43.47,0,3.15-1,4.71-3.87,6-13.79,6.25-27.45,12.8-41.26,19-2.92,1.31-3.84,3-3.81,6.05.16,17.32,0,34.64.27,52,.05,3.73-1.22,5.66-4.56,7.18q-16.37,7.45-32.46,15.47c-3.24,1.61-3.56.51-3.53-2.37.1-8.66,0-17.32,0-26Z" transform="translate(-0.64 -2.71)"/><path class="cls-27" d="M105.32,167.79c0,8.66.24,17.34-.13,26-.14,3.13.82,4.33,3.46,5.51,14.27,6.4,28.42,13.05,42.68,19.46,3,1.34,4.17,3,4.12,6.43-.2,14.82-.09,29.65-.14,44.48,0,5.11-.31,5.28-5,3.08-13.43-6.24-26.89-12.42-40.24-18.83-3.76-1.81-4.83-1.24-4.76,3,.2,11.82.14,23.65,0,35.48-.05,5-.59,10-.75,14.92-.07,2.23-.86,2.56-2.74,1.68q-17-7.94-33.95-15.76c-2.82-1.3-3.59-3.37-3.57-6.39.13-17.16,0-34.32.17-51.48,0-3.93-1.28-5.77-5-7.36-13.73-5.95-27.24-12.42-40.87-18.6-2.22-1-3.33-2.27-3.31-4.88q.16-22.72,0-45.47c0-3.73,1.21-3.72,4.11-2.37,13.43,6.22,27,12.19,40.39,18.45,3.83,1.79,4.59.55,4.57-3.1-.11-16.33,0-32.65-.16-49,0-4.07.94-4.42,4.44-2.74,11,5.25,22,10.27,33.09,15.22,2.69,1.2,3.65,2.87,3.61,5.76-.15,8.83-.05,17.66-.05,26.49Z" transform="translate(-0.64 -2.71)"/><path class="cls-28" d="M77.62,102.29l51.85-24L79.68,56.17c8-3.74,16-6.53,22.94-10.93,10.58-6.69,20.11-5.54,30.55.23,8.84,4.89,18.47,8.34,27.67,12.61a9.81,9.81,0,0,0,9,0c12.35-5.77,24.8-11.33,37.17-17.07,3.68-1.7,7-2,10.89-.14C228.7,46,239.7,50.72,251.66,56c-17.15,6.79-32.72,14.63-49.83,22.1l52.31,24.23c-12.3,5.62-24,10.95-35.7,16.34-2.35,1.08-4.26-.19-6.15-1-13.32-6-26.73-11.92-39.83-18.41-5.14-2.55-9.22-2.55-14.37,0-13.22,6.63-26.79,12.56-40.18,18.84a6,6,0,0,1-5.63.19C101.18,113.09,90,108,77.62,102.29Z" transform="translate(-0.64 -2.71)"/><path class="cls-29" d="M195.23,168.34c-.25,5.68-4.94,10.85-9.77,10.79-4-.06-7.11-3.87-7-8.66.15-5.74,5.22-11.4,10-11.14C192.25,159.54,195.43,163.77,195.23,168.34Z" transform="translate(-0.64 -2.71)"/><path class="cls-30" d="M195.36,318.32c-.31,5.6-5.13,10.72-10,10.62-4.07-.09-7.05-3.62-6.89-8.18.2-5.56,5.47-11.06,10.35-10.79C193,310.19,195.62,313.52,195.36,318.32Z" transform="translate(-0.64 -2.71)"/><path class="cls-30" d="M151.68,171.49c0,4.92-2.33,7.85-6.3,7.91-5,.07-9.67-5.53-9.58-11.44.07-4.62,2.76-7.9,6.53-8C147.4,159.92,151.67,165.18,151.68,171.49Z" transform="translate(-0.64 -2.71)"/><path class="cls-31" d="M151.56,321.59c0,4.55-2.35,7.68-5.92,7.74-4.8.07-10.15-6.15-10.09-11.75,0-4.54,2.85-7.76,6.69-7.71C147.06,309.94,151.51,315.53,151.56,321.59Z" transform="translate(-0.64 -2.71)"/><path class="cls-1" d="M316.59,259c0,6.13-4.33,11.25-9.54,11.34-4.77.08-7.93-3.16-8-8.19,0-5.94,5.32-11.61,10.86-11.49C313.86,250.72,316.61,254.17,316.59,259Z" transform="translate(-0.64 -2.71)"/><path class="cls-29" d="M30.75,262.34c.05,4.68-2.47,7.81-6.37,7.92-5.19.14-10.6-5.89-10.61-11.82,0-4.15,3.15-7.74,6.81-7.76C25.48,250.66,30.69,256.63,30.75,262.34Z" transform="translate(-0.64 -2.71)"/><path class="cls-29" d="M31.63,115.38c0,5.08-2.5,7.9-6.91,7.8-5.44-.13-10.4-6.12-10.4-12.59,0-5,2.85-8.45,7.11-8.47C26.79,102.1,31.64,108.41,31.63,115.38Z" transform="translate(-0.64 -2.71)"/><path class="cls-1" d="M316.17,111c-.05,6.33-4.56,11.57-10,11.58-4.5,0-7.75-3.6-7.71-8.55.05-5.46,6.15-12,11-11.69C313,102.54,316.2,106.7,316.17,111Z" transform="translate(-0.64 -2.71)"/><path class="cls-32" d="M193.61,131.09c-8.25,4.14-15.53,8.09-23.06,11.45-4.05,1.81-8.55,1.28-12.59-.58-6-2.78-11.92-5.86-17.89-8.77-2.69-1.3-2.88-2.46,0-3.75,7.87-3.53,15.72-7.11,23.58-10.66a4.11,4.11,0,0,1,3.38,0C175.74,122.37,184.48,126,193.61,131.09Z" transform="translate(-0.64 -2.71)"/><path class="cls-33" d="M175.38,20.34c3.81,1.6,7.64,3.17,11.43,4.82,1,.44,2.33.87,2.2,2.34-.09,1.15-1.16,1.46-2.09,1.84-5.67,2.32-11.32,4.67-17,7a12.22,12.22,0,0,1-8.23.35c-6.75-1.84-13-5-19.39-7.58-1.89-.76-2.25-2,.09-2.9,4-1.6,8-3.25,11.94-4.87,1.56,4.32,4.16,7.22,9.15,7.55C170.14,29.33,172.69,27.63,175.38,20.34Z" transform="translate(-0.64 -2.71)"/><path class="cls-34" d="M175.38,20.34c1.31,5.13.25,7.38-4.58,9.2a16.58,16.58,0,0,1-12.14-.2c-3.75-1.44-5.81-3.76-4.32-8C161.49,15.89,168.2,15.57,175.38,20.34Z" transform="translate(-0.64 -2.71)"/><path class="cls-35" d="M45.56,83.59c-6.07.06-11.87-3.36-11.83-7s5.48-6.4,11.69-6.27h.5c6.12.28,9.64,2.66,9.59,6.48C55.45,81,51.69,83.52,45.56,83.59Z" transform="translate(-0.64 -2.71)"/><path class="cls-36" d="M285.2,84.22c-5.61-.14-10.35-3.09-10.45-6.51-.1-3.68,3.29-6.22,9.41-7.06a15.36,15.36,0,0,1,10.06,1.81c4.14,2.4,4.31,6.36.36,9.1A15.48,15.48,0,0,1,285.2,84.22Z" transform="translate(-0.64 -2.71)"/><path class="cls-37" d="M191.36,168.09c-.67,3.19-1.51,6.53-5.44,6.62-2.45.06-3.66-2.21-3.44-4.62.29-3.22,1.83-5.91,5.24-6.33C190.53,163.41,191.16,165.74,191.36,168.09Z" transform="translate(-0.64 -2.71)"/><path class="cls-38" d="M182.45,319.89c.7-2.74,1.53-5.65,5.05-5.71,2.92-.05,4,2.19,3.74,4.76-.34,3.23-2.07,5.86-5.55,5.83C183.07,324.75,182.62,322.22,182.45,319.89Z" transform="translate(-0.64 -2.71)"/><path class="cls-39" d="M144.89,175.18c-3.32-.81-4.92-3.21-5.16-6.45-.17-2.15.82-4,3.24-4.29s5.4,3.83,5.2,7C148.05,173.41,147.27,175,144.89,175.18Z" transform="translate(-0.64 -2.71)"/><path class="cls-40" d="M147.87,320.94c-.26,2.07-.66,4.6-3.19,4.18-3.53-.6-4.9-3.71-5.23-7-.23-2.3,1-4.15,3.47-3.76C146.44,314.92,147.47,317.8,147.87,320.94Z" transform="translate(-0.64 -2.71)"/><path class="cls-41" d="M303.23,260.56c.47-2.8,2-5.68,5.68-5.8,3-.09,4.39,2.54,4,5.21-.43,3.31-2.25,6.16-6,6.14C304.08,266.09,303.17,263.8,303.23,260.56Z" transform="translate(-0.64 -2.71)"/><path class="cls-42" d="M26.72,261.17c0,2.76-1,4.55-3.75,4.31-3.66-.32-4.9-3.05-5-6.2-.1-2.3.91-4.48,3.68-4.15C25.12,255.55,26.25,258.32,26.72,261.17Z" transform="translate(-0.64 -2.71)"/><path class="cls-43" d="M18.35,111.94c.18-2.59.91-5.5,3.6-5.06,3.92.63,5.06,4.36,5.48,7.92.28,2.41-.75,4.62-3.49,4.2C20.12,118.41,18.77,115.35,18.35,111.94Z" transform="translate(-0.64 -2.71)"/><path class="cls-44" d="M312.11,110.86c.15,3.84-2.71,7.51-5.62,7.5-3.16,0-3.87-2.37-3.89-4.74,0-3.48,1.63-6.28,5.29-6.78C310.8,106.43,311.81,108.71,312.11,110.86Z" transform="translate(-0.64 -2.71)"/><path class="cls-45" d="M165.07,139.2a19.21,19.21,0,0,1-2.94-.37c-3.83-1-8.59-1.8-8.42-6.8.16-4.62,4.7-5.46,8.45-6.27a16.89,16.89,0,0,1,9.75,1c2.47.95,4.27,2.58,4.3,5.47,0,2.72-1.72,4.12-4,5.18A19.82,19.82,0,0,1,165.07,139.2Z" transform="translate(-0.64 -2.71)"/><path class="cls-46" d="M165.13,27.14c-2.42-.64-6.36.29-6.45-3s3.7-2.81,6.23-3a4.17,4.17,0,0,1,.5,0c2.58.19,6.37-.12,6.26,3.09S167.58,26.51,165.13,27.14Z" transform="translate(-0.64 -2.71)"/><path class="cls-47" d="M45,80.07c-2.48-.57-6.29,0-6.33-3.24,0-2.6,3.59-3,6-3,2.7,0,6.72.1,6.79,3.17S47.42,79.34,45,80.07Z" transform="translate(-0.64 -2.71)"/><path class="cls-48" d="M286,74.29c2.83.41,6.89,0,6.92,2.78,0,3.14-4,3.23-6.75,3.29-2.63.06-6.53,0-6.57-2.8C279.59,74.05,283.69,74.79,286,74.29Z" transform="translate(-0.64 -2.71)"/><path class="cls-49" d="M165.46,129.35c2.2.4,5.78-.28,5.83,2.79,0,2.87-3.44,3-5.85,3.08-2.72.07-6.7.32-6.63-3.14C158.86,129.07,162.79,129.58,165.46,129.35Z" transform="translate(-0.64 -2.71)"/></svg>